<svg width="550" height="585" xmlns="http://www.w3.org/2000/svg" preserveAspectRatio="xMidYMid meet">

 <g>
  <title>background</title>
  <rect fill="none" id="canvas_background" height="587" width="552" y="-1" x="-1"/>
 </g>
 <g>
  <title>Layer 1</title>
  <g id="svg_1" fill="#FFFFFF" transform="translate(0,1824) scale(0.10000000149011612,-0.10000000149011612) ">
   <path id="svg_2" d="m4293,18178c-4,-7 -7,-242 -5,-523c5,-795 -34,-1299 -124,-1612c-30,-107 -80,-217 -94,-208c-5,3 -18,32 -27,63c-24,79 -24,353 0,512c26,171 84,419 128,554c21,65 36,122 33,127c-3,5 -14,9 -25,9c-37,0 -122,-221 -188,-488c-109,-441 -92,-806 42,-877l37,-20l38,20c96,51 167,254 221,630c62,433 77,1078 37,1565c-21,245 -23,260 -46,260c-10,0 -22,-6 -27,-12z"/>
   <path id="svg_3" d="m2050,17996c-168,-36 -403,-141 -625,-281c-76,-48 -118,-68 -137,-67c-22,2 -29,-3 -34,-22c-4,-16 -41,-51 -109,-100c-554,-407 -1094,-985 -1099,-1178c-1,-42 21,-72 46,-63c12,5 16,19 14,54c-1,40 6,59 48,128c123,204 418,518 731,778c111,93 342,265 354,265c7,0 9,-25 5,-72c-2,-40 -16,-325 -30,-633c-13,-308 -33,-722 -44,-920c-11,-198 -23,-448 -27,-555c-5,-174 -4,-197 10,-209c27,-22 44,2 51,72c43,419 68,936 86,1772c6,264 13,507 16,540l5,61l112,69c347,215 657,326 824,296c195,-37 286,-183 286,-461c0,-422 -206,-876 -766,-1680c-415,-596 -892,-1178 -1000,-1219c-45,-17 -29,-71 20,-71c72,0 201,116 416,374c345,413 790,1041 1031,1455c266,457 381,798 381,1126c-1,160 -15,228 -70,341c-41,85 -93,135 -182,177c-55,25 -80,30 -157,33c-52,2 -119,-2 -156,-10z"/>
   <path id="svg_4" d="m3629,16934c-15,-18 -25,-130 -15,-169c6,-22 11,-26 39,-23l32,3l3,86c2,69 -1,90 -13,103c-21,20 -29,20 -46,0z"/>
   <path id="svg_5" d="m2998,16659c-9,-5 -25,-34 -34,-64c-15,-45 -15,-57 -4,-70c7,-9 19,-14 27,-11c11,4 13,-48 13,-297c0,-621 30,-874 106,-893c60,-15 101,23 129,120c41,141 83,623 71,818c-7,126 -12,140 -39,136c-29,-4 -32,-24 -57,-343c-21,-271 -54,-546 -69,-573c-6,-10 -10,-2 -15,26c-10,67 -24,359 -31,652c-11,469 -25,541 -97,499z"/>
   <path id="svg_6" d="m2682,16555c-11,-14 -26,-25 -34,-25c-17,0 -65,-50 -106,-111c-120,-179 -277,-661 -289,-890c-3,-59 -3,-118 1,-133c10,-39 41,-66 78,-66c61,0 173,146 256,334l30,69l5,-264c4,-265 12,-325 45,-361c8,-10 23,-18 33,-18c16,0 17,30 18,473c0,447 1,477 22,562c47,200 54,412 14,441c-28,21 -51,17 -73,-11zm-42,-216c-5,-63 -10,-155 -10,-204c0,-104 -29,-212 -107,-394c-62,-146 -161,-311 -186,-311c-7,0 -8,43 -4,123c14,262 138,657 267,846c23,35 44,61 46,58c2,-2 0,-55 -6,-118z"/>
   <path id="svg_7" d="m3586,16552c-6,-11 -51,-381 -71,-591c-18,-181 -19,-285 -5,-312c15,-28 49,-24 60,7c19,48 70,853 57,887c-7,18 -32,23 -41,9z"/>
   <path id="svg_8" d="m4139,15314c-7,-9 -13,-35 -13,-57c2,-106 -24,-392 -111,-1227c-60,-583 -68,-691 -63,-891c5,-184 14,-229 48,-229c25,0 27,12 34,181c5,127 31,396 106,1114c64,608 87,1029 60,1099c-11,30 -41,34 -61,10z"/>
   <path id="svg_9" d="m3887,15233c-24,-41 -110,-886 -193,-1893c-21,-254 -26,-800 -7,-842c14,-32 38,-36 51,-10c5,9 12,85 16,167c7,159 25,416 81,1160c19,253 48,665 65,915c17,250 33,461 35,469c10,25 -35,56 -48,34z"/>
   <path id="svg_10" d="m3372,15064c-68,-35 -136,-161 -218,-409c-29,-88 -55,-176 -59,-196c-5,-28 -11,-36 -24,-32c-41,11 -45,-10 -127,-654c-91,-724 -142,-1212 -130,-1259c6,-22 11,-25 44,-22c45,4 45,3 67,243c9,94 25,255 37,358l22,189l90,76c50,42 142,121 204,175c61,54 112,92 112,83c0,-19 -32,-288 -75,-640c-41,-326 -42,-342 -16,-355c24,-14 46,4 59,49c26,85 83,462 127,849c15,124 31,233 36,243c6,10 7,38 4,61c-3,23 1,121 10,217c9,96 19,285 22,420c8,347 -13,513 -75,580c-34,37 -68,44 -110,24zm58,-131c36,-132 36,-463 0,-902c-11,-130 -20,-241 -20,-247c0,-6 -35,-40 -77,-75c-43,-35 -136,-120 -207,-189l-128,-125l6,60c44,384 80,592 156,895c74,292 162,525 228,603c22,25 30,21 42,-20z"/>
   <path id="svg_11" d="m5094,14531c-56,-34 -98,-156 -133,-386c-11,-71 -23,-161 -27,-200l-7,-70l-13,50c-7,28 -13,64 -13,81c-1,41 -21,58 -46,40c-16,-12 -17,-23 -11,-102c14,-186 58,-520 72,-541c19,-30 58,-30 78,-1c13,18 16,51 16,153c0,163 23,442 49,605c21,129 54,255 71,265c24,15 80,-261 154,-760c20,-132 40,-253 44,-269c11,-39 35,-54 58,-36c15,13 16,29 11,145c-7,149 -35,366 -78,605c-48,274 -87,387 -143,421c-17,10 -35,19 -41,19c-5,0 -24,-9 -41,-19z"/>
   <path id="svg_12" d="m4365,14002c-46,-30 -71,-61 -104,-132c-43,-93 -62,-170 -68,-287c-10,-172 27,-294 113,-373c59,-55 105,-73 181,-73c79,1 135,27 208,100c57,57 64,73 42,92c-11,8 -30,1 -83,-34c-91,-59 -157,-74 -219,-51c-97,38 -145,138 -145,308c0,182 80,389 146,376c36,-7 59,-55 58,-123c-1,-89 -52,-193 -131,-265c-45,-41 -55,-55 -47,-68c19,-29 33,-24 90,30c170,159 219,372 110,477c-44,42 -106,52 -151,23z"/>
  </g>
 </g>
</svg>